<svg xmlns="http://www.w3.org/2000/svg" width="262.65999999999997" height="35" viewBox="0 0 262.65999999999997 35"><rect class="svg__rect" x="0" y="0" width="153.17000000000002" height="35" fill="#BDAE93"/><rect class="svg__rect" x="151.17000000000002" y="0" width="111.48999999999998" height="35" fill="#A89984"/><path class="svg__text" d="M13.95 18.19L13.95 18.19L13.95 17.39Q13.95 16.19 14.38 15.27Q14.80 14.35 15.60 13.85Q16.40 13.35 17.45 13.35L17.45 13.35Q18.86 13.35 19.73 14.12Q20.59 14.89 20.73 16.29L20.73 16.29L19.25 16.29Q19.14 15.37 18.71 14.96Q18.28 14.55 17.45 14.55L17.45 14.55Q16.48 14.55 15.97 15.26Q15.45 15.96 15.44 17.33L15.44 17.33L15.44 18.09Q15.44 19.47 15.93 20.20Q16.43 20.92 17.38 20.92L17.38 20.92Q18.25 20.92 18.69 20.53Q19.13 20.14 19.25 19.22L19.25 19.22L20.73 19.22Q20.60 20.59 19.72 21.35Q18.84 22.12 17.38 22.12L17.38 22.12Q16.36 22.12 15.59 21.63Q14.81 21.15 14.39 20.26Q13.97 19.37 13.95 18.19ZM24.77 18.00L24.77 18.00L24.77 17.52Q24.77 16.28 25.21 15.32Q25.65 14.37 26.46 13.86Q27.27 13.35 28.31 13.35Q29.35 13.35 30.16 13.85Q30.96 14.35 31.40 15.29Q31.84 16.23 31.85 17.48L31.85 17.48L31.85 17.96Q31.85 19.21 31.41 20.16Q30.98 21.10 30.18 21.61Q29.37 22.12 28.32 22.12L28.32 22.12Q27.28 22.12 26.47 21.61Q25.66 21.10 25.22 20.17Q24.78 19.23 24.77 18.00ZM26.25 17.46L26.25 17.96Q26.25 19.36 26.80 20.13Q27.35 20.90 28.32 20.90L28.32 20.90Q29.31 20.90 29.84 20.15Q30.37 19.40 30.37 17.96L30.37 17.96L30.37 17.51Q30.37 16.09 29.83 15.34Q29.29 14.58 28.31 14.58L28.31 14.58Q27.35 14.58 26.81 15.33Q26.26 16.09 26.25 17.46L26.25 17.46ZM41.67 22L36.31 22L36.31 13.47L37.80 13.47L37.80 20.82L41.67 20.82L41.67 22ZM45.52 18.00L45.52 18.00L45.52 17.52Q45.52 16.28 45.97 15.32Q46.41 14.37 47.21 13.86Q48.02 13.35 49.06 13.35Q50.11 13.35 50.91 13.85Q51.72 14.35 52.16 15.29Q52.60 16.23 52.60 17.48L52.60 17.48L52.60 17.96Q52.60 19.21 52.17 20.16Q51.73 21.10 50.93 21.61Q50.12 22.12 49.07 22.12L49.07 22.12Q48.04 22.12 47.23 21.61Q46.41 21.10 45.97 20.17Q45.53 19.23 45.52 18.00ZM47.01 17.46L47.01 17.96Q47.01 19.36 47.55 20.13Q48.10 20.90 49.07 20.90L49.07 20.90Q50.06 20.90 50.59 20.15Q51.12 19.40 51.12 17.96L51.12 17.96L51.12 17.51Q51.12 16.09 50.58 15.34Q50.05 14.58 49.06 14.58L49.06 14.58Q48.10 14.58 47.56 15.33Q47.02 16.09 47.01 17.46L47.01 17.46ZM58.55 22L57.07 22L57.07 13.47L60.07 13.47Q61.54 13.47 62.35 14.13Q63.15 14.79 63.15 16.05L63.15 16.05Q63.15 16.90 62.74 17.48Q62.32 18.06 61.58 18.37L61.58 18.37L63.50 21.92L63.50 22L61.91 22L60.20 18.71L58.55 18.71L58.55 22ZM58.55 14.66L58.55 17.52L60.07 17.52Q60.82 17.52 61.24 17.15Q61.67 16.77 61.67 16.11L61.67 16.11Q61.67 15.43 61.28 15.05Q60.89 14.68 60.11 14.66L60.11 14.66L58.55 14.66ZM75.00 22L73.52 22L73.52 13.47L76.78 13.47Q78.21 13.47 79.05 14.21Q79.89 14.96 79.89 16.18L79.89 16.18Q79.89 17.44 79.07 18.13Q78.25 18.83 76.77 18.83L76.77 18.83L75.00 18.83L75.00 22ZM75.00 14.66L75.00 17.64L76.78 17.64Q77.57 17.64 77.99 17.27Q78.41 16.90 78.41 16.19L78.41 16.19Q78.41 15.50 77.98 15.09Q77.56 14.68 76.82 14.66L76.82 14.66L75.00 14.66ZM84.96 22L83.42 22L86.64 13.47L87.97 13.47L91.20 22L89.65 22L88.95 20.01L85.65 20.01L84.96 22ZM87.30 15.28L86.06 18.82L88.54 18.82L87.30 15.28ZM100.51 22L95.15 22L95.15 13.47L96.64 13.47L96.64 20.82L100.51 20.82L100.51 22ZM110.21 22L104.63 22L104.63 13.47L110.17 13.47L110.17 14.66L106.12 14.66L106.12 17.02L109.62 17.02L109.62 18.19L106.12 18.19L106.12 20.82L110.21 20.82L110.21 22ZM116.09 14.66L113.45 14.66L113.45 13.47L120.22 13.47L120.22 14.66L117.56 14.66L117.56 22L116.09 22L116.09 14.66ZM125.66 14.66L123.02 14.66L123.02 13.47L129.79 13.47L129.79 14.66L127.13 14.66L127.13 22L125.66 22L125.66 14.66ZM139.12 22L133.54 22L133.54 13.47L139.08 13.47L139.08 14.66L135.03 14.66L135.03 17.02L138.53 17.02L138.53 18.19L135.03 18.19L135.03 20.82L139.12 20.82L139.12 22Z" fill="#FFFFFF"/><path class="svg__text" d="M164.93 17.80L164.93 17.80Q164.93 16.54 165.53 15.54Q166.13 14.55 167.19 13.99Q168.26 13.43 169.61 13.43L169.61 13.43Q170.78 13.43 171.72 13.83Q172.66 14.22 173.28 14.97L173.28 14.97L171.77 16.33Q170.92 15.40 169.75 15.40L169.75 15.40Q169.73 15.40 169.73 15.40L169.73 15.40Q168.65 15.40 167.99 16.06Q167.33 16.71 167.33 17.80L167.33 17.80Q167.33 18.50 167.63 19.04Q167.93 19.59 168.47 19.89Q169.01 20.20 169.71 20.20L169.71 20.20Q170.39 20.20 170.99 19.93L170.99 19.93L170.99 17.62L173.09 17.62L173.09 21.10Q172.37 21.61 171.43 21.89Q170.50 22.17 169.56 22.17L169.56 22.17Q168.24 22.17 167.18 21.61Q166.13 21.05 165.53 20.05Q164.93 19.06 164.93 17.80ZM180.46 22L178.08 22L178.08 13.60L181.92 13.60Q183.06 13.60 183.90 13.98Q184.74 14.35 185.20 15.06Q185.65 15.76 185.65 16.71L185.65 16.71Q185.65 17.62 185.23 18.30Q184.80 18.98 184.01 19.36L184.01 19.36L185.82 22L183.28 22L181.75 19.77L180.46 19.77L180.46 22ZM180.46 15.47L180.46 17.93L181.78 17.93Q182.51 17.93 182.88 17.61Q183.25 17.29 183.25 16.71L183.25 16.71Q183.25 16.12 182.88 15.79Q182.51 15.47 181.78 15.47L181.78 15.47L180.46 15.47ZM190.37 18.26L190.37 18.26L190.37 13.60L192.75 13.60L192.75 18.19Q192.75 20.20 194.34 20.20L194.34 20.20Q195.93 20.20 195.93 18.19L195.93 18.19L195.93 13.60L198.27 13.60L198.27 18.26Q198.27 20.13 197.23 21.15Q196.19 22.17 194.32 22.17L194.32 22.17Q192.45 22.17 191.41 21.15Q190.37 20.13 190.37 18.26ZM205.94 22L202.35 13.60L204.92 13.60L207.20 19.07L209.53 13.60L211.88 13.60L208.28 22L205.94 22ZM220.57 22L216.03 22L216.03 13.60L220.33 13.60Q221.94 13.60 222.78 14.19Q223.62 14.79 223.62 15.79L223.62 15.79Q223.62 16.39 223.32 16.87Q223.03 17.34 222.49 17.62L222.49 17.62Q223.21 17.87 223.61 18.41Q224.02 18.94 224.02 19.70L224.02 19.70Q224.02 20.80 223.13 21.40Q222.25 22 220.57 22L220.57 22ZM218.39 18.58L218.39 20.28L220.38 20.28Q221.63 20.28 221.63 19.43L221.63 19.43Q221.63 18.58 220.38 18.58L220.38 18.58L218.39 18.58ZM218.39 15.31L218.39 16.94L220.01 16.94Q221.22 16.94 221.22 16.12L221.22 16.12Q221.22 15.31 220.01 15.31L220.01 15.31L218.39 15.31ZM228.31 17.80L228.31 17.80Q228.31 16.55 228.91 15.55Q229.52 14.56 230.58 14.00Q231.65 13.43 232.98 13.43L232.98 13.43Q234.31 13.43 235.37 14.00Q236.43 14.56 237.04 15.55Q237.65 16.55 237.65 17.80L237.65 17.80Q237.65 19.05 237.04 20.04Q236.43 21.04 235.37 21.60Q234.31 22.17 232.98 22.17L232.98 22.17Q231.65 22.17 230.58 21.60Q229.52 21.04 228.91 20.04Q228.31 19.05 228.31 17.80ZM230.71 17.80L230.71 17.80Q230.71 18.51 231.01 19.05Q231.31 19.60 231.83 19.90Q232.34 20.20 232.98 20.20L232.98 20.20Q233.61 20.20 234.13 19.90Q234.65 19.60 234.94 19.05Q235.24 18.51 235.24 17.80L235.24 17.80Q235.24 17.09 234.94 16.54Q234.65 16 234.13 15.70Q233.61 15.40 232.98 15.40L232.98 15.40Q232.34 15.40 231.82 15.70Q231.31 16 231.01 16.54Q230.71 17.09 230.71 17.80ZM244.23 22L241.51 22L244.57 17.75L241.64 13.60L244.32 13.60L246.00 16.02L247.65 13.60L250.23 13.60L247.30 17.66L250.42 22L247.68 22L245.94 19.40L244.23 22Z" fill="#FFFFFF" x="164.17000000000002"/></svg>