<svg xmlns="http://www.w3.org/2000/svg" width="131.39" height="35" viewBox="0 0 131.39 35"><rect class="svg__rect" x="0" y="0" width="55.28" height="35" fill="#B8BB26"/><rect class="svg__rect" x="53.28" y="0" width="78.11" height="35" fill="#98971A"/><path class="svg__text" d="M15.70 22L14.22 22L14.22 13.47L19.64 13.47L19.64 14.66L15.70 14.66L15.70 17.20L19.13 17.20L19.13 18.38L15.70 18.38L15.70 22ZM23.53 18.00L23.53 18.00L23.53 17.52Q23.53 16.28 23.97 15.32Q24.41 14.37 25.22 13.86Q26.02 13.35 27.07 13.35Q28.11 13.35 28.92 13.85Q29.72 14.35 30.16 15.29Q30.60 16.23 30.61 17.48L30.61 17.48L30.61 17.96Q30.61 19.21 30.17 20.16Q29.74 21.10 28.93 21.61Q28.13 22.12 27.08 22.12L27.08 22.12Q26.04 22.12 25.23 21.61Q24.42 21.10 23.98 20.17Q23.53 19.23 23.53 18.00ZM25.01 17.46L25.01 17.96Q25.01 19.36 25.56 20.13Q26.11 20.90 27.08 20.90L27.08 20.90Q28.06 20.90 28.59 20.15Q29.12 19.40 29.12 17.96L29.12 17.96L29.12 17.51Q29.12 16.09 28.59 15.34Q28.05 14.58 27.07 14.58L27.07 14.58Q26.11 14.58 25.56 15.33Q25.02 16.09 25.01 17.46L25.01 17.46ZM36.55 22L35.07 22L35.07 13.47L38.07 13.47Q39.55 13.47 40.35 14.13Q41.15 14.79 41.15 16.05L41.15 16.05Q41.15 16.90 40.74 17.48Q40.33 18.06 39.59 18.37L39.59 18.37L41.50 21.92L41.50 22L39.92 22L38.21 18.71L36.55 18.71L36.55 22ZM36.55 14.66L36.55 17.52L38.08 17.52Q38.83 17.52 39.25 17.15Q39.67 16.77 39.67 16.11L39.67 16.11Q39.67 15.43 39.28 15.05Q38.89 14.68 38.12 14.66L38.12 14.66L36.55 14.66Z" fill="#FFFFFF"/><path class="svg__text" d="M67.04 17.80L67.04 17.80Q67.04 16.54 67.64 15.54Q68.24 14.55 69.30 13.99Q70.37 13.43 71.72 13.43L71.72 13.43Q72.89 13.43 73.83 13.83Q74.77 14.22 75.39 14.97L75.39 14.97L73.88 16.33Q73.03 15.40 71.86 15.40L71.86 15.40Q71.84 15.40 71.84 15.40L71.84 15.40Q70.76 15.40 70.10 16.06Q69.44 16.71 69.44 17.80L69.44 17.80Q69.44 18.50 69.74 19.04Q70.04 19.59 70.58 19.89Q71.12 20.20 71.82 20.20L71.82 20.20Q72.50 20.20 73.10 19.93L73.10 19.93L73.10 17.62L75.20 17.62L75.20 21.10Q74.48 21.61 73.54 21.89Q72.61 22.17 71.67 22.17L71.67 22.17Q70.35 22.17 69.29 21.61Q68.24 21.05 67.64 20.05Q67.04 19.06 67.04 17.80ZM82.57 22L80.19 22L80.19 13.60L82.57 13.60L82.57 22ZM89.53 15.48L86.95 15.48L86.95 13.60L94.47 13.60L94.47 15.48L91.91 15.48L91.91 22L89.53 22L89.53 15.48ZM105.59 22L98.84 22L98.84 13.60L105.44 13.60L105.44 15.44L101.20 15.44L101.20 16.85L104.93 16.85L104.93 18.63L101.20 18.63L101.20 20.17L105.59 20.17L105.59 22ZM111.81 22L109.39 22L113.09 13.60L115.44 13.60L119.15 22L116.69 22L116.02 20.37L112.47 20.37L111.81 22ZM114.25 15.93L113.17 18.61L115.33 18.61L114.25 15.93Z" fill="#FFFFFF" x="66.28"/></svg>