<svg xmlns="http://www.w3.org/2000/svg" width="170" height="35" viewBox="0 0 170 35"><rect class="svg__rect" x="0" y="0" width="115.31" height="35" fill="#FB4934"/><rect class="svg__rect" x="113.31" y="0" width="56.69" height="35" fill="#CC241D"/><path class="svg__text" d="M15.69 22L14.22 22L14.22 13.47L16.14 13.47L18.60 20.01L21.06 13.47L22.97 13.47L22.97 22L21.49 22L21.49 19.19L21.64 15.43L19.12 22L18.06 22L15.55 15.43L15.69 19.19L15.69 22ZM28.49 22L26.95 22L30.17 13.47L31.50 13.47L34.73 22L33.18 22L32.49 20.01L29.18 20.01L28.49 22ZM30.83 15.28L29.60 18.82L32.07 18.82L30.83 15.28ZM41.14 22L38.69 22L38.69 13.47L41.21 13.47Q42.34 13.47 43.21 13.97Q44.09 14.48 44.57 15.40Q45.05 16.33 45.05 17.52L45.05 17.52L45.05 17.95Q45.05 19.16 44.57 20.08Q44.08 21.00 43.19 21.50Q42.30 22 41.14 22L41.14 22ZM40.17 14.66L40.17 20.82L41.14 20.82Q42.30 20.82 42.93 20.09Q43.55 19.36 43.56 17.99L43.56 17.99L43.56 17.52Q43.56 16.13 42.96 15.40Q42.35 14.66 41.21 14.66L41.21 14.66L40.17 14.66ZM55.09 22L49.51 22L49.51 13.47L55.05 13.47L55.05 14.66L51.00 14.66L51.00 17.02L54.50 17.02L54.50 18.19L51.00 18.19L51.00 20.82L55.09 20.82L55.09 22ZM66.65 22L64.68 13.47L66.15 13.47L67.47 19.88L69.10 13.47L70.34 13.47L71.96 19.89L73.27 13.47L74.74 13.47L72.77 22L71.35 22L69.73 15.77L68.07 22L66.65 22ZM80.38 22L78.90 22L78.90 13.47L80.38 13.47L80.38 22ZM86.87 14.66L84.23 14.66L84.23 13.47L91.00 13.47L91.00 14.66L88.34 14.66L88.34 22L86.87 22L86.87 14.66ZM96.24 22L94.75 22L94.75 13.47L96.24 13.47L96.24 17.02L100.05 17.02L100.05 13.47L101.53 13.47L101.53 22L100.05 22L100.05 18.21L96.24 18.21L96.24 22Z" fill="#FFFFFF"/><path class="svg__text" d="M127.07 17.80L127.07 17.80Q127.07 16.54 127.67 15.54Q128.27 14.55 129.32 13.99Q130.37 13.43 131.69 13.43L131.69 13.43Q132.84 13.43 133.76 13.84Q134.69 14.25 135.30 15.02L135.30 15.02L133.79 16.39Q132.98 15.40 131.81 15.40L131.81 15.40Q131.12 15.40 130.59 15.70Q130.06 16 129.76 16.54Q129.47 17.09 129.47 17.80L129.47 17.80Q129.47 18.51 129.76 19.05Q130.06 19.60 130.59 19.90Q131.12 20.20 131.81 20.20L131.81 20.20Q132.98 20.20 133.79 19.22L133.79 19.22L135.30 20.58Q134.69 21.35 133.77 21.76Q132.84 22.17 131.69 22.17L131.69 22.17Q130.37 22.17 129.32 21.61Q128.27 21.05 127.67 20.05Q127.07 19.06 127.07 17.80ZM139.25 21.24L139.25 21.24L140.03 19.49Q140.59 19.86 141.34 20.09Q142.08 20.32 142.80 20.32L142.80 20.32Q144.17 20.32 144.17 19.64L144.17 19.64Q144.17 19.28 143.78 19.11Q143.39 18.93 142.53 18.74L142.53 18.74Q141.58 18.53 140.94 18.30Q140.31 18.06 139.85 17.55Q139.40 17.03 139.40 16.16L139.40 16.16Q139.40 15.39 139.82 14.77Q140.24 14.15 141.07 13.79Q141.91 13.43 143.11 13.43L143.11 13.43Q143.94 13.43 144.74 13.62Q145.55 13.80 146.17 14.17L146.17 14.17L145.43 15.93Q144.23 15.28 143.10 15.28L143.10 15.28Q142.39 15.28 142.07 15.49Q141.75 15.70 141.75 16.04L141.75 16.04Q141.75 16.37 142.13 16.54Q142.52 16.71 143.37 16.89L143.37 16.89Q144.33 17.10 144.96 17.33Q145.59 17.56 146.05 18.07Q146.51 18.58 146.51 19.46L146.51 19.46Q146.51 20.21 146.09 20.83Q145.67 21.44 144.83 21.80Q143.99 22.17 142.79 22.17L142.79 22.17Q141.77 22.17 140.81 21.92Q139.85 21.67 139.25 21.24ZM150.50 21.24L150.50 21.24L151.28 19.49Q151.84 19.86 152.59 20.09Q153.33 20.32 154.05 20.32L154.05 20.32Q155.42 20.32 155.42 19.64L155.42 19.64Q155.42 19.28 155.03 19.11Q154.64 18.93 153.78 18.74L153.78 18.74Q152.83 18.53 152.19 18.30Q151.56 18.06 151.10 17.55Q150.65 17.03 150.65 16.16L150.65 16.16Q150.65 15.39 151.07 14.77Q151.49 14.15 152.32 13.79Q153.16 13.43 154.36 13.43L154.36 13.43Q155.19 13.43 155.99 13.62Q156.80 13.80 157.42 14.17L157.42 14.17L156.68 15.93Q155.48 15.28 154.35 15.28L154.35 15.28Q153.64 15.28 153.32 15.49Q153.00 15.70 153.00 16.04L153.00 16.04Q153.00 16.37 153.38 16.54Q153.77 16.71 154.62 16.89L154.62 16.89Q155.58 17.10 156.21 17.33Q156.84 17.56 157.30 18.07Q157.76 18.58 157.76 19.46L157.76 19.46Q157.76 20.21 157.34 20.83Q156.92 21.44 156.08 21.80Q155.24 22.17 154.04 22.17L154.04 22.17Q153.02 22.17 152.06 21.92Q151.10 21.67 150.50 21.24Z" fill="#FFFFFF" x="126.31"/></svg>